<?xml version="1.0" encoding="utf-8"?>
<!-- Generator: Adobe Illustrator 21.0.0, SVG Export Plug-In . SVG Version: 6.00 Build 0)  -->
<!DOCTYPE svg PUBLIC "-//W3C//DTD SVG 1.1//EN" "http://www.w3.org/Graphics/SVG/1.1/DTD/svg11.dtd">
<svg version="1.1" id="Layer_1" xmlns="http://www.w3.org/2000/svg" xmlns:xlink="http://www.w3.org/1999/xlink" x="0px" y="0px"
	 viewBox="0 0 113.4 113.4" style="enable-background:new 0 0 113.4 113.4;" xml:space="preserve">
<style type="text/css">
	.st0{fill:#FFFFFF;}
</style>
<g>
	<path class="st0" d="M16.6,107.4c-5.9,0-10.7-4.8-10.7-10.7V16.6c0-5.9,4.8-10.7,10.7-10.7h80.1c5.9,0,10.7,4.8,10.7,10.7v80.1
		c0,5.9-4.8,10.7-10.7,10.7H16.6z"/>
	<path d="M96.8,9.4c4,0,7.2,3.2,7.2,7.2v80.1c0,4-3.2,7.2-7.2,7.2H16.6c-4,0-7.2-3.2-7.2-7.2V16.6c0-4,3.2-7.2,7.2-7.2H96.8
		 M96.8,2.4H16.6C8.8,2.4,2.4,8.8,2.4,16.6v80.1c0,7.8,6.4,14.2,14.2,14.2h80.1c7.8,0,14.2-6.4,14.2-14.2V16.6
		C110.9,8.8,104.6,2.4,96.8,2.4L96.8,2.4z"/>
</g>
<g>
	<path d="M54.3,72h-5.8l-4.8-12.6h-7.8V72h-5.5V41.4h13.3c3.7,0,6.4,0.8,8.2,2.5c1.7,1.7,2.6,3.8,2.6,6.5c0,3.9-1.8,6.6-5.5,8.1
		L54.3,72z M35.9,55h6.9c2,0,3.5-0.4,4.4-1.3c1-0.8,1.5-2,1.5-3.5c0-1.3-0.5-2.4-1.4-3.3s-2.3-1.2-4-1.2h-7.3V55z"/>
	<path d="M65.4,72h-5.5V41.4h12.6c3.6,0,6.2,0.9,8,2.7c1.7,1.8,2.6,3.9,2.6,6.4c0,2.8-0.9,5.1-2.8,6.8c-1.9,1.7-4.2,2.6-7.1,2.6
		h-7.7V72z M65.4,55.1H72c1.7,0,3-0.4,3.9-1.3c0.9-0.8,1.3-2,1.3-3.3c0-1.3-0.4-2.3-1.2-3.2c-0.8-0.9-2.3-1.3-4.5-1.3h-6V55.1z"/>
</g>
</svg>
