<?xml version="1.0" encoding="utf-8"?>
<!-- Generator: Adobe Illustrator 21.0.0, SVG Export Plug-In . SVG Version: 6.00 Build 0)  -->
<!DOCTYPE svg PUBLIC "-//W3C//DTD SVG 1.1//EN" "http://www.w3.org/Graphics/SVG/1.1/DTD/svg11.dtd">
<svg version="1.1" id="Layer_1" xmlns="http://www.w3.org/2000/svg" xmlns:xlink="http://www.w3.org/1999/xlink" x="0px" y="0px"
	 viewBox="0 0 113.4 113.4" style="enable-background:new 0 0 113.4 113.4;" xml:space="preserve">
<style type="text/css">
	.st0{fill:#FFFFFF;}
</style>
<g>
	<path class="st0" d="M16.6,107.4c-5.9,0-10.7-4.8-10.7-10.7V16.6c0-5.9,4.8-10.7,10.7-10.7h80.1c5.9,0,10.7,4.8,10.7,10.7v80.1
		c0,5.9-4.8,10.7-10.7,10.7H16.6z"/>
	<path d="M96.8,9.4c4,0,7.2,3.2,7.2,7.2v80.1c0,4-3.2,7.2-7.2,7.2H16.6c-4,0-7.2-3.2-7.2-7.2V16.6c0-4,3.2-7.2,7.2-7.2H96.8
		 M96.8,2.4H16.6C8.8,2.4,2.4,8.8,2.4,16.6v80.1c0,7.8,6.4,14.2,14.2,14.2h80.1c7.8,0,14.2-6.4,14.2-14.2V16.6
		C110.9,8.8,104.6,2.4,96.8,2.4L96.8,2.4z"/>
</g>
<g>
	<path d="M36,61.4l5.1,0.6c-0.3,3.1-1.5,5.6-3.6,7.6s-4.7,3-8.1,3c-2.8,0-5.1-0.7-6.8-2.1c-1.7-1.4-3.1-3.3-4-5.7
		c-0.9-2.4-1.4-5.1-1.4-8c0-4.7,1.1-8.5,3.3-11.4c2.2-2.9,5.3-4.4,9.1-4.4c3,0,5.6,0.9,7.6,2.8c2,1.9,3.3,4.6,3.8,8L36,52.3
		c-0.9-4.6-3-6.9-6.2-6.9c-2.1,0-3.7,1-4.8,2.9c-1.1,1.9-1.7,4.7-1.7,8.4c0,3.7,0.6,6.5,1.8,8.4c1.2,1.9,2.9,2.8,4.9,2.8
		c1.6,0,3-0.6,4.1-1.9C35.2,64.7,35.9,63.1,36,61.4z"/>
	<path d="M69.3,72h-5.9L61,64.7H49.2L46.8,72h-4.7l10.2-30.7h6.8L69.3,72z M59.5,60.3L55,46.6l-4.5,13.7H59.5z"/>
	<path d="M78.5,72H73V41.4h12.6c3.6,0,6.2,0.9,8,2.7c1.7,1.8,2.6,3.9,2.6,6.4c0,2.8-0.9,5.1-2.8,6.8c-1.9,1.7-4.2,2.6-7.1,2.6h-7.7
		V72z M78.5,55.1h6.5c1.7,0,3-0.4,3.9-1.3c0.9-0.8,1.3-2,1.3-3.3c0-1.3-0.4-2.3-1.2-3.2c-0.8-0.9-2.3-1.3-4.5-1.3h-6V55.1z"/>
</g>
</svg>
