<?xml version="1.0" encoding="utf-8"?>
<!-- Generator: Adobe Illustrator 21.0.0, SVG Export Plug-In . SVG Version: 6.00 Build 0)  -->
<!DOCTYPE svg PUBLIC "-//W3C//DTD SVG 1.1//EN" "http://www.w3.org/Graphics/SVG/1.1/DTD/svg11.dtd">
<svg version="1.1" id="Layer_1" xmlns="http://www.w3.org/2000/svg" xmlns:xlink="http://www.w3.org/1999/xlink" x="0px" y="0px"
	 viewBox="0 0 113.4 113.4" style="enable-background:new 0 0 113.4 113.4;" xml:space="preserve">
<style type="text/css">
	.st0{fill:#FFFFFF;}
</style>
<g>
	<g>
		<path class="st0" d="M16.6,107.4c-5.9,0-10.7-4.8-10.7-10.7V16.6c0-5.9,4.8-10.7,10.7-10.7h80.1c5.9,0,10.7,4.8,10.7,10.7v80.1
			c0,5.9-4.8,10.7-10.7,10.7H16.6z"/>
		<path d="M96.8,9.4c4,0,7.2,3.2,7.2,7.2v80.1c0,4-3.2,7.2-7.2,7.2H16.6c-4,0-7.2-3.2-7.2-7.2V16.6c0-4,3.2-7.2,7.2-7.2H96.8
			 M96.8,2.4H16.6C8.8,2.4,2.4,8.8,2.4,16.6v80.1c0,7.8,6.4,14.2,14.2,14.2h80.1c7.8,0,14.2-6.4,14.2-14.2V16.6
			C110.9,8.8,104.6,2.4,96.8,2.4L96.8,2.4z"/>
	</g>
	<g>
		<g>
			<path d="M51,64.7h-5.8l-4.8-8.3l-5.3,8.3h-4.4L38.3,53l-6.5-11h5.9l3.7,6.7l4.2-6.7h4.3l-6.4,9.8L51,64.7z"/>
			<path d="M62.2,50.9v4.2H50.9v-4.2H62.2z"/>
			<path d="M70.3,71.7h-5.1V41h5.1V71.7z"/>
			<path d="M83.2,41l-2.3,21.4h-2.3L76.4,41H83.2z M82.5,66.1v5.6h-5.6v-5.6H82.5z"/>
		</g>
		<g>
			<path d="M51.2,68.2v4.2h-21v-4.2H51.2z"/>
		</g>
	</g>
</g>
</svg>
