<?xml version="1.0" encoding="utf-8"?>
<!-- Generator: Adobe Illustrator 16.0.0, SVG Export Plug-In . SVG Version: 6.00 Build 0)  -->
<!DOCTYPE svg PUBLIC "-//W3C//DTD SVG 1.1//EN" "http://www.w3.org/Graphics/SVG/1.1/DTD/svg11.dtd">
<svg version="1.1" id="Layer_1" xmlns="http://www.w3.org/2000/svg" xmlns:xlink="http://www.w3.org/1999/xlink" x="0px" y="0px"
	 width="100px" height="88.506px" viewBox="0 0 100 88.506" enable-background="new 0 0 100 88.506" xml:space="preserve">
<g>
	<path fill="#282827" d="M3.04,85.569V28.001h4.406c0.813,0,1.468-0.658,1.468-1.468c0-0.813-0.656-1.469-1.468-1.469H3.04V9.789
		h8.812v2.161c0,2.426,1.973,4.406,4.406,4.406c2.428,0,4.406-1.98,4.406-4.406V9.789h59.132v2.161c0,2.426,1.982,4.406,4.405,4.406
		c2.434,0,4.406-1.98,4.406-4.406V9.789h8.816v15.276H13.32c-0.813,0-1.469,0.656-1.469,1.469c0,0.81,0.656,1.468,1.469,1.468
		h84.103v57.568H3.04z M14.789,4.406c0-0.813,0.656-1.469,1.469-1.469c0.808,0,1.469,0.656,1.469,1.469v7.544
		c0,0.808-0.661,1.469-1.469,1.469c-0.813,0-1.469-0.661-1.469-1.469V4.406z M82.732,4.406c0-0.813,0.66-1.469,1.468-1.469
		c0.813,0,1.469,0.656,1.469,1.469v7.544c0,0.808-0.655,1.469-1.469,1.469c-0.808,0-1.468-0.661-1.468-1.469V4.406z M98.892,6.851
		H88.606V4.406C88.606,1.973,86.634,0,84.2,0c-2.423,0-4.405,1.973-4.405,4.406v2.445H20.663V4.406C20.663,1.973,18.686,0,16.257,0
		c-2.433,0-4.406,1.973-4.406,4.406v2.445H1.571c-0.813,0-1.469,0.659-1.469,1.469v78.718c0,0.813,0.656,1.468,1.469,1.468h97.32
		c0.813,0,1.469-0.655,1.469-1.468V8.32C100.36,7.51,99.704,6.851,98.892,6.851"/>
	<path fill="#282827" d="M18.313,61.483H8.914v-9.398h9.399V61.483z M19.782,49.147H7.446c-0.813,0-1.469,0.661-1.469,1.469v12.336
		c0,0.813,0.656,1.474,1.469,1.474h12.336c0.813,0,1.468-0.661,1.468-1.474V50.616C21.25,49.809,20.595,49.147,19.782,49.147"/>
	<path fill="#282827" d="M36.622,61.483h-9.399v-9.398h9.399V61.483z M38.091,49.147H25.754c-0.813,0-1.469,0.661-1.469,1.469
		v12.336c0,0.813,0.656,1.474,1.469,1.474h12.336c0.813,0,1.469-0.661,1.469-1.474V50.616C39.56,49.809,38.903,49.147,38.091,49.147
		"/>
	<path fill="#282827" d="M54.931,61.483h-9.399v-9.398h9.399V61.483z M56.399,49.147H44.059c-0.808,0-1.469,0.661-1.469,1.469
		v12.336c0,0.813,0.661,1.474,1.469,1.474h12.341c0.808,0,1.469-0.661,1.469-1.474V50.616
		C57.868,49.809,57.207,49.147,56.399,49.147"/>
	<path fill="#282827" d="M54.931,43.273h-9.399v-9.399h9.399V43.273z M56.399,30.937H44.059c-0.808,0-1.469,0.658-1.469,1.469
		v12.336c0,0.813,0.661,1.472,1.469,1.472h12.341c0.808,0,1.469-0.659,1.469-1.472V32.405
		C57.868,31.595,57.207,30.937,56.399,30.937"/>
	<path fill="#282827" d="M73.24,43.273h-9.399v-9.399h9.399V43.273z M74.708,30.937H62.372c-0.813,0-1.469,0.658-1.469,1.469v12.336
		c0,0.813,0.656,1.472,1.469,1.472h12.336c0.813,0,1.469-0.659,1.469-1.472V32.405C76.177,31.595,75.521,30.937,74.708,30.937"/>
	<path fill="#282827" d="M91.549,43.273h-9.399v-9.399h9.399V43.273z M93.018,30.937H80.676c-0.808,0-1.469,0.658-1.469,1.469
		v12.336c0,0.813,0.661,1.472,1.469,1.472h12.342c0.808,0,1.469-0.659,1.469-1.472V32.405
		C94.486,31.595,93.825,30.937,93.018,30.937"/>
	<path fill="#282827" d="M73.24,61.483h-9.399v-9.398h9.399V61.483z M74.708,49.147H62.372c-0.813,0-1.469,0.661-1.469,1.469v12.336
		c0,0.813,0.656,1.474,1.469,1.474h12.336c0.813,0,1.469-0.661,1.469-1.474V50.616C76.177,49.809,75.521,49.147,74.708,49.147"/>
	<path fill="#282827" d="M91.549,61.483h-9.399v-9.398h9.399V61.483z M93.018,49.147H80.676c-0.808,0-1.469,0.661-1.469,1.469
		v12.336c0,0.813,0.661,1.474,1.469,1.474h12.342c0.808,0,1.469-0.661,1.469-1.474V50.616
		C94.486,49.809,93.825,49.147,93.018,49.147"/>
	<path fill="#282827" d="M18.313,79.694H8.914v-9.398h9.399V79.694z M19.782,67.358H7.446c-0.813,0-1.469,0.661-1.469,1.469v12.336
		c0,0.813,0.656,1.474,1.469,1.474h12.336c0.813,0,1.468-0.661,1.468-1.474V68.827C21.25,68.02,20.595,67.358,19.782,67.358"/>
	<path fill="#282827" d="M36.622,79.694h-9.399v-9.398h9.399V79.694z M38.091,67.358H25.754c-0.813,0-1.469,0.661-1.469,1.469
		v12.336c0,0.813,0.656,1.474,1.469,1.474h12.336c0.813,0,1.469-0.661,1.469-1.474V68.827C39.56,68.02,38.903,67.358,38.091,67.358"
		/>
	<path fill="#282827" d="M54.931,79.694h-9.399v-9.398h9.399V79.694z M56.399,67.358H44.059c-0.808,0-1.469,0.661-1.469,1.469
		v12.336c0,0.813,0.661,1.474,1.469,1.474h12.341c0.808,0,1.469-0.661,1.469-1.474V68.827C57.868,68.02,57.207,67.358,56.399,67.358
		"/>
	<path fill="#282827" d="M73.24,79.694h-9.399v-9.398h9.399V79.694z M74.708,67.358H62.372c-0.813,0-1.469,0.661-1.469,1.469v12.336
		c0,0.813,0.656,1.474,1.469,1.474h12.336c0.813,0,1.469-0.661,1.469-1.474V68.827C76.177,68.02,75.521,67.358,74.708,67.358"/>
</g>
</svg>
