<?xml version="1.0" encoding="utf-8"?>
<!-- Generator: Adobe Illustrator 16.0.0, SVG Export Plug-In . SVG Version: 6.00 Build 0)  -->
<!DOCTYPE svg PUBLIC "-//W3C//DTD SVG 1.1//EN" "http://www.w3.org/Graphics/SVG/1.1/DTD/svg11.dtd">
<svg version="1.1" id="Capa_1" xmlns="http://www.w3.org/2000/svg" xmlns:xlink="http://www.w3.org/1999/xlink" x="0px" y="0px"
	 width="100px" height="100px" viewBox="0 0 100 100" enable-background="new 0 0 100 100" xml:space="preserve">
<g>
	<g>
		<g id="Layer_1_8_">
			<g>
				<path fill="#E41B4A" d="M98.732,15.429c-0.992-1.138-2.421-1.792-3.928-1.792H23.018L22.005,7.59
					c-0.416-2.504-2.582-4.343-5.122-4.343H5.195C2.322,3.247,0,5.569,0,8.441c0,2.873,2.322,5.195,5.195,5.195h7.288l9.663,57.995
					c0.042,0.234,0.161,0.426,0.234,0.645c0.083,0.275,0.15,0.535,0.28,0.784c0.167,0.343,0.39,0.634,0.624,0.931
					c0.161,0.202,0.307,0.404,0.494,0.581c0.301,0.28,0.649,0.478,1.002,0.675c0.197,0.109,0.369,0.256,0.582,0.338
					c0.603,0.244,1.236,0.391,1.907,0.391c0.005,0,57.148,0,57.148,0c2.872,0,5.194-2.322,5.194-5.195s-2.322-5.195-5.194-5.195
					H31.673l-0.862-5.194h58.8c2.587,0,4.779-1.901,5.144-4.457l5.194-36.364C100.161,18.073,99.715,16.561,98.732,15.429z
					 M88.815,24.026l-1.48,10.39H68.831v-10.39H88.815z M63.637,24.026v10.39H48.052v-10.39H63.637z M63.637,39.61V50H48.052V39.61
					H63.637z M42.857,24.026v10.39H27.273c-0.275,0-0.525,0.078-0.769,0.156l-1.756-10.545H42.857z M27.346,39.61h15.511V50H29.075
					L27.346,39.61z M68.831,50V39.61h17.756L85.106,50H68.831z"/>
				<circle fill="#E41B4A" cx="35.065" cy="88.961" r="7.792"/>
				<circle fill="#E41B4A" cx="81.818" cy="88.961" r="7.792"/>
			</g>
		</g>
	</g>
</g>
</svg>
