<?xml version="1.0" encoding="utf-8"?>
<!-- Generator: Adobe Illustrator 16.0.0, SVG Export Plug-In . SVG Version: 6.00 Build 0)  -->
<!DOCTYPE svg PUBLIC "-//W3C//DTD SVG 1.1//EN" "http://www.w3.org/Graphics/SVG/1.1/DTD/svg11.dtd">
<svg version="1.1" id="Layer_1" xmlns="http://www.w3.org/2000/svg" xmlns:xlink="http://www.w3.org/1999/xlink" x="0px" y="0px"
	 width="103.4px" height="103.4px" viewBox="0 0 103.4 103.4" enable-background="new 0 0 103.4 103.4" xml:space="preserve">
<g>
	<path fill="#E41B4A" d="M45.078,78.599h10.299c1.157,0,2.1-0.941,2.1-2.1V53.818h4.851c1.08,0,1.978-0.811,2.089-1.886l0.901-8.753
		c0.062-0.589-0.132-1.181-0.529-1.623c-0.397-0.44-0.966-0.692-1.56-0.692h-5.752v-3.046c0-0.146,0.01-0.235,0.021-0.286
		c0.017-0.001,0.038-0.001,0.065-0.001H63.1c1.156,0,2.098-0.942,2.098-2.102v-8.5c0-1.151-0.938-2.093-2.09-2.1l-7.638-0.031
		c-5.558,0-8.54,2.465-10.063,4.532c-2.114,2.872-2.429,6.223-2.429,7.965v3.568h-2.797c-1.158,0-2.1,0.941-2.1,2.099v8.755
		c0,1.158,0.942,2.101,2.1,2.101h2.797v22.681C42.978,77.657,43.92,78.599,45.078,78.599z M55.461,28.999l5.537,0.023v4.309h-3.438
		c-2.063,0-4.285,1.404-4.285,4.487v5.146c0,1.158,0.942,2.101,2.101,2.101H60.9l-0.469,4.555h-5.056
		c-1.158,0-2.101,0.941-2.101,2.099V74.4h-6.098V51.718c0-1.158-0.942-2.1-2.1-2.1H42.28v-4.554h2.798c1.158,0,2.1-0.942,2.1-2.102
		v-5.666c0-0.987,0.157-3.498,1.613-5.476C50.167,29.948,52.412,28.999,55.461,28.999z"/>
	<path fill="#E41B4A" d="M88.258,15.143C78.494,5.378,65.511,0,51.7,0C37.891,0,24.908,5.378,15.144,15.143
		C5.378,24.909,0,37.892,0,51.699C0,65.51,5.378,78.493,15.144,88.258C24.908,98.022,37.891,103.4,51.7,103.4
		c13.81,0,26.793-5.378,36.558-15.143S103.4,65.51,103.4,51.699C103.4,37.891,98.022,24.908,88.258,15.143z M51.7,99.199
		c-12.689,0-24.617-4.94-33.586-13.91C9.142,76.317,4.2,64.388,4.2,51.699c0-12.688,4.941-24.615,13.914-33.586
		C27.085,9.141,39.013,4.199,51.7,4.199c12.688,0,24.616,4.941,33.587,13.914C94.26,27.084,99.2,39.012,99.2,51.699
		c0,12.688-4.94,24.617-13.913,33.59C76.318,94.259,64.39,99.199,51.7,99.199z"/>
	<path fill="#E41B4A" d="M86.896,23.18c-0.703-0.868-2.088-1.012-2.954-0.309c-0.436,0.353-0.708,0.854-0.767,1.41
		c-0.059,0.559,0.104,1.106,0.459,1.544C89.545,33.109,92.8,42.299,92.8,51.7c0,10.979-4.274,21.302-12.038,29.063
		C73,88.524,62.68,92.799,51.701,92.799c-10.131,0-19.862-3.716-27.399-10.463c-0.831-0.743-2.221-0.667-2.966,0.165
		c-0.374,0.417-0.563,0.956-0.532,1.516c0.031,0.561,0.278,1.074,0.696,1.448C29.812,92.903,40.537,97,51.701,97
		c12.1,0,23.475-4.712,32.032-13.267C92.288,75.178,97,63.802,97,51.7C97,41.339,93.412,31.21,86.896,23.18z"/>
	<path fill="#E41B4A" d="M10.6,51.7c0-22.663,18.438-41.102,41.101-41.102c10.128,0,19.858,3.717,27.398,10.464
		c0.829,0.744,2.224,0.666,2.965-0.163c0.374-0.417,0.563-0.955,0.532-1.516c-0.03-0.561-0.277-1.075-0.695-1.45
		C73.588,10.496,62.863,6.399,51.7,6.399c-12.099,0-23.475,4.712-32.031,13.269S6.4,39.601,6.4,51.7
		c0,10.362,3.588,20.491,10.104,28.522C16.905,80.717,17.5,81,18.135,81c0.48,0,0.951-0.168,1.323-0.471
		c0.436-0.353,0.708-0.854,0.766-1.413c0.058-0.558-0.104-1.104-0.458-1.541C13.855,70.291,10.6,61.102,10.6,51.7z"/>
</g>
</svg>
