<?xml version="1.0" encoding="utf-8"?>
<!-- Generator: Adobe Illustrator 16.0.3, SVG Export Plug-In . SVG Version: 6.00 Build 0)  -->
<!DOCTYPE svg PUBLIC "-//W3C//DTD SVG 1.1//EN" "http://www.w3.org/Graphics/SVG/1.1/DTD/svg11.dtd">
<svg version="1.1" id="Layer_1" xmlns="http://www.w3.org/2000/svg" xmlns:xlink="http://www.w3.org/1999/xlink" x="0px" y="0px"
	 width="103.4px" height="103.4px" viewBox="0 0 103.4 103.4" enable-background="new 0 0 103.4 103.4" xml:space="preserve">
<g>
	<path fill="#E31D4B" d="M88.259,15.143C78.494,5.378,65.51,0,51.7,0C37.892,0,24.908,5.378,15.144,15.143
		C5.378,24.909,0,37.892,0,51.699C0,65.51,5.378,78.493,15.144,88.258C24.908,98.022,37.892,103.4,51.7,103.4
		c13.81,0,26.793-5.378,36.559-15.144C98.022,78.493,103.4,65.51,103.4,51.699C103.4,37.891,98.022,24.908,88.259,15.143z
		 M85.288,85.289c-8.97,8.97-20.897,13.91-33.588,13.91c-12.688,0-24.616-4.94-33.586-13.91C9.142,76.317,4.2,64.389,4.2,51.699
		c0-12.688,4.941-24.615,13.914-33.586C27.085,9.141,39.013,4.199,51.7,4.199c12.688,0,24.617,4.941,33.588,13.914
		C94.26,27.084,99.2,39.012,99.2,51.699C99.2,64.387,94.26,76.316,85.288,85.289z"/>
	<path fill="#E31D4B" d="M86.897,23.18c-0.703-0.868-2.088-1.013-2.955-0.31c-0.437,0.354-0.707,0.854-0.767,1.41
		c-0.059,0.559,0.104,1.107,0.459,1.544C89.546,33.109,92.8,42.299,92.8,51.7c0,10.979-4.273,21.301-12.035,29.063
		c-7.764,7.761-18.084,12.034-29.063,12.034c-10.131,0-19.862-3.716-27.399-10.463c-0.83-0.743-2.222-0.667-2.967,0.165
		c-0.771,0.863-0.696,2.193,0.164,2.964C29.812,92.903,40.537,97,51.701,97c12.1,0,23.476-4.712,32.032-13.267
		C92.288,75.178,97,63.802,97,51.7C97,41.339,93.412,31.21,86.897,23.18z"/>
	<path fill="#E31D4B" d="M10.6,51.7c0-22.663,18.438-41.102,41.101-41.102c10.129,0,19.859,3.717,27.398,10.464
		c0.83,0.744,2.225,0.666,2.965-0.163c0.375-0.417,0.563-0.955,0.533-1.517c-0.031-0.561-0.277-1.074-0.696-1.449
		C73.589,10.496,62.863,6.399,51.7,6.399c-12.099,0-23.475,4.712-32.031,13.269C11.113,28.225,6.4,39.601,6.4,51.7
		c0,10.362,3.589,20.491,10.104,28.521c0.4,0.493,0.995,0.777,1.632,0.777c0.48,0,0.95-0.168,1.323-0.471
		c0.898-0.729,1.037-2.054,0.309-2.954C13.855,70.291,10.6,61.102,10.6,51.7z"/>
	<path fill="#E31D4B" d="M38.26,25.282c-7.133,0.003-12.949,5.811-12.963,12.946v27.056c0.015,7.133,5.83,12.94,12.964,12.945
		h27.103c7.135-0.005,12.95-5.813,12.965-12.946V38.227c-0.015-7.134-5.83-12.941-12.965-12.945H38.26z M65.363,73.951H38.26
		c-4.778,0-8.671-3.889-8.678-8.668V38.23c0.013-4.772,3.906-8.654,8.678-8.654h27.103c4.771,0,8.667,3.882,8.683,8.653v27.054
		C74.037,70.062,70.141,73.951,65.363,73.951z"/>
	<path fill="#E31D4B" d="M66.953,33.821c-1.842,0-3.34,1.499-3.34,3.34c0,1.843,1.498,3.342,3.34,3.342
		c1.843,0,3.342-1.499,3.342-3.342C70.295,35.319,68.796,33.821,66.953,33.821z"/>
	<path fill="#E31D4B" d="M51.811,38.527c-7.296,0.012-13.224,5.958-13.214,13.254c0.013,7.285,5.948,13.212,13.231,13.212h0.022
		c7.286-0.009,13.214-5.945,13.214-13.233C65.052,44.466,59.107,38.53,51.811,38.527z M51.812,42.781
		c4.945,0,8.969,4.024,8.969,8.971c0,4.945-4.023,8.968-8.969,8.968c-4.946,0-8.97-4.022-8.97-8.968
		C42.842,46.805,46.866,42.781,51.812,42.781z M51.828,64.492L51.828,64.492L51.828,64.492L51.828,64.492z"/>
</g>
</svg>
