<?xml version="1.0" encoding="utf-8"?>
<!-- Generator: Adobe Illustrator 16.0.0, SVG Export Plug-In . SVG Version: 6.00 Build 0)  -->
<!DOCTYPE svg PUBLIC "-//W3C//DTD SVG 1.1//EN" "http://www.w3.org/Graphics/SVG/1.1/DTD/svg11.dtd">
<svg version="1.1" id="Layer_1" xmlns="http://www.w3.org/2000/svg" xmlns:xlink="http://www.w3.org/1999/xlink" x="0px" y="0px"
	 width="42.521px" height="50px" viewBox="0 0 42.521 50" enable-background="new 0 0 42.521 50" xml:space="preserve">
<path fill="#FFFFFF" d="M24.243,0.039c-10.079,0-18.278,8.199-18.278,18.277c0,5.296,2.277,10.058,5.89,13.398L0,46.723l4.099,3.238
	l12.065-15.275c2.439,1.209,5.176,1.906,8.08,1.906c10.076,0,18.277-8.197,18.277-18.276C42.521,8.238,34.319,0.039,24.243,0.039z
	 M24.243,31.37c-7.199,0-13.056-5.856-13.056-13.054S17.044,5.261,24.243,5.261c7.198,0,13.055,5.857,13.055,13.055
	S31.441,31.37,24.243,31.37z"/>
</svg>
