<?xml version="1.0" encoding="utf-8"?>
<!-- Generator: Adobe Illustrator 16.0.3, SVG Export Plug-In . SVG Version: 6.00 Build 0)  -->
<!DOCTYPE svg PUBLIC "-//W3C//DTD SVG 1.1//EN" "http://www.w3.org/Graphics/SVG/1.1/DTD/svg11.dtd">
<svg version="1.1" id="Layer_1" xmlns="http://www.w3.org/2000/svg" xmlns:xlink="http://www.w3.org/1999/xlink" x="0px" y="0px"
	 width="100px" height="84.029px" viewBox="0 0 100 84.029" enable-background="new 0 0 100 84.029" xml:space="preserve">
<g>
	<path fill="#E41B4A" d="M13.312,84.029L0,61.009l26.59-0.017L13.312,84.029z M4.418,63.556l8.891,15.375l8.868-15.386L4.418,63.556
		z"/>
</g>
<g>
	<path fill="#E41B4A" d="M13.313,53.536L0,30.513l26.59-0.018L13.313,53.536z M4.418,33.06l8.89,15.376l8.868-15.387L4.418,33.06z"
		/>
</g>
<g>
	<path fill="#E41B4A" d="M13.313,23.039L0,0.017L26.59,0L13.313,23.039z M4.418,2.564l8.89,15.375l8.868-15.387L4.418,2.564z"/>
</g>
<g>
	<g>
		<path fill="#E41B4A" d="M50.018,84.029L36.705,61.009l26.59-0.017L50.018,84.029z M41.123,63.556l8.891,15.375l8.867-15.386
			L41.123,63.556z"/>
	</g>
	<g>
		<path fill="#E41B4A" d="M50.018,53.536L36.705,30.513l26.59-0.018L50.018,53.536z M41.123,33.06l8.891,15.376l8.867-15.387
			L41.123,33.06z"/>
	</g>
	<g>
		<path fill="#E41B4A" d="M50.018,23.039L36.705,0.017L63.295,0L50.018,23.039z M41.123,2.564l8.891,15.375l8.867-15.387
			L41.123,2.564z"/>
	</g>
</g>
<g>
	<g>
		<path fill="#E41B4A" d="M86.723,84.029L73.41,61.009L100,60.992L86.723,84.029z M77.828,63.556l8.891,15.375l8.867-15.386
			L77.828,63.556z"/>
	</g>
	<g>
		<path fill="#E41B4A" d="M86.723,53.536L73.41,30.513L100,30.496L86.723,53.536z M77.828,33.06l8.891,15.376l8.867-15.387
			L77.828,33.06z"/>
	</g>
	<g>
		<path fill="#E41B4A" d="M86.723,23.039L73.41,0.017L100,0L86.723,23.039z M77.828,2.564l8.891,15.375l8.867-15.387L77.828,2.564z"
			/>
	</g>
</g>
</svg>
