<?xml version="1.0" encoding="utf-8"?>
<!-- Generator: Adobe Illustrator 16.0.0, SVG Export Plug-In . SVG Version: 6.00 Build 0)  -->
<!DOCTYPE svg PUBLIC "-//W3C//DTD SVG 1.1//EN" "http://www.w3.org/Graphics/SVG/1.1/DTD/svg11.dtd">
<svg version="1.1" id="Layer_1" xmlns="http://www.w3.org/2000/svg" xmlns:xlink="http://www.w3.org/1999/xlink" x="0px" y="0px"
	 width="103.4px" height="103.4px" viewBox="0 0 103.4 103.4" enable-background="new 0 0 103.4 103.4" xml:space="preserve">
<g>
	<path fill="#E41B4A" d="M88.259,15.143C78.494,5.378,65.511,0,51.7,0C37.892,0,24.908,5.378,15.144,15.143
		C5.378,24.909,0,37.892,0,51.699C0,65.51,5.378,78.493,15.144,88.258C24.908,98.022,37.892,103.4,51.7,103.4
		c13.81,0,26.793-5.378,36.559-15.143C98.022,78.493,103.4,65.51,103.4,51.699C103.4,37.891,98.022,24.908,88.259,15.143z
		 M51.7,99.199c-12.688,0-24.616-4.94-33.586-13.91C9.142,76.317,4.2,64.389,4.2,51.699c0-12.688,4.941-24.615,13.914-33.586
		C27.085,9.141,39.013,4.199,51.7,4.199c12.688,0,24.617,4.941,33.588,13.914C94.26,27.084,99.2,39.012,99.2,51.699
		c0,12.688-4.94,24.617-13.912,33.59C76.318,94.259,64.39,99.199,51.7,99.199z"/>
	<path fill="#E41B4A" d="M86.897,23.18c-0.703-0.868-2.088-1.012-2.955-0.309c-0.436,0.353-0.707,0.854-0.766,1.41
		c-0.059,0.559,0.104,1.107,0.459,1.544C89.546,33.109,92.8,42.299,92.8,51.7c0,10.979-4.274,21.301-12.036,29.063
		c-7.763,7.761-18.084,12.035-29.063,12.035c-10.131,0-19.862-3.716-27.399-10.463c-0.831-0.743-2.222-0.667-2.967,0.165
		c-0.771,0.863-0.697,2.193,0.164,2.964C29.812,92.903,40.537,97,51.701,97c12.1,0,23.476-4.712,32.032-13.267
		C92.288,75.178,97,63.802,97,51.7C97,41.339,93.412,31.21,86.897,23.18z"/>
	<path fill="#E41B4A" d="M10.6,51.7c0-22.663,18.438-41.102,41.101-41.102c10.129,0,19.859,3.717,27.398,10.464
		c0.83,0.744,2.225,0.666,2.965-0.163c0.375-0.417,0.564-0.955,0.533-1.516s-0.277-1.075-0.696-1.45
		C73.589,10.496,62.863,6.399,51.7,6.399c-12.099,0-23.475,4.712-32.031,13.269C11.113,28.225,6.4,39.601,6.4,51.7
		c0,10.362,3.589,20.491,10.104,28.521c0.4,0.494,0.995,0.778,1.632,0.778c0.48,0,0.95-0.168,1.323-0.471
		c0.898-0.729,1.037-2.054,0.308-2.954C13.855,70.291,10.6,61.102,10.6,51.7z"/>
	<path fill="#E41B4A" d="M80.647,39.729c0.515-0.772,0.457-1.807-0.14-2.517c-0.37-0.441-0.901-0.708-1.473-0.744
		c0.19-0.425,0.357-0.858,0.497-1.297c0.266-0.825-0.012-1.743-0.691-2.284c-0.665-0.529-1.646-0.598-2.381-0.162
		c-1.49,0.885-3.088,1.551-4.754,1.981c-2.243-1.945-5.096-3.014-8.064-3.014c-6.764,0-12.268,5.495-12.277,12.254
		c-6.686-0.959-12.698-4.359-16.982-9.619c-0.436-0.536-1.099-0.823-1.793-0.769c-0.688,0.054-1.305,0.442-1.65,1.037
		c-1.087,1.866-1.662,4.001-1.662,6.172c0,1.823,0.408,3.633,1.185,5.271c-0.08,0.035-0.158,0.074-0.233,0.118
		c-0.638,0.377-1.034,1.07-1.034,1.81v0.128c0,3.41,1.424,6.657,3.923,8.986c-0.351,0.526-0.449,1.196-0.256,1.808
		c1.008,3.149,3.214,5.722,6.132,7.198c-2.277,0.982-4.716,1.479-7.265,1.479c-0.73,0-1.466-0.042-2.185-0.126
		c-0.979-0.102-1.896,0.47-2.221,1.38c-0.33,0.928,0.018,1.945,0.845,2.475c5.003,3.208,10.789,4.904,16.732,4.904
		c11.678,0,18.992-5.517,23.071-10.145c5.073-5.757,7.982-13.378,7.982-20.909c0-0.1,0-0.198-0.001-0.296
		C77.771,43.396,79.35,41.674,80.647,39.729z M71.753,45.146c0,6.523-2.527,13.133-6.932,18.132C61.312,67.257,55.007,72,44.899,72
		c-2.472,0-4.91-0.337-7.271-1.003c2.913-0.778,5.607-2.13,8.03-4.031c0.697-0.547,0.977-1.479,0.694-2.317
		c-0.281-0.842-1.065-1.418-1.951-1.434c-2.306-0.044-4.479-1.075-5.968-2.799c0.525-0.071,1.05-0.178,1.565-0.317
		c0.945-0.254,1.583-1.115,1.551-2.094c-0.031-0.98-0.724-1.799-1.682-1.99c-2.677-0.542-4.862-2.377-5.878-4.878
		c0.613,0.114,1.246,0.182,1.912,0.204c0.917,0,1.721-0.586,1.999-1.458c0.286-0.887-0.056-1.869-0.833-2.39
		c-2.249-1.501-3.592-4.015-3.592-6.725c0-0.381,0.026-0.76,0.08-1.136c5.42,5.273,12.509,8.371,20.066,8.748l0.101,0.003
		c0.626,0,1.215-0.275,1.616-0.755c0.42-0.502,0.582-1.183,0.434-1.823c-0.139-0.59-0.209-1.21-0.209-1.841
		c0-4.45,3.624-8.071,8.078-8.071c2.223,0,4.373,0.929,5.898,2.548c0.437,0.465,1.072,0.699,1.711,0.652
		c-0.305,0.516-0.387,1.154-0.184,1.748c0.229,0.673,0.777,1.171,1.439,1.35c-0.525,0.421-0.816,1.064-0.785,1.744
		C71.744,44.322,71.753,44.718,71.753,45.146z"/>
</g>
</svg>
