<?xml version="1.0" encoding="utf-8"?>
<!-- Generator: Adobe Illustrator 16.0.0, SVG Export Plug-In . SVG Version: 6.00 Build 0)  -->
<!DOCTYPE svg PUBLIC "-//W3C//DTD SVG 1.1//EN" "http://www.w3.org/Graphics/SVG/1.1/DTD/svg11.dtd">
<svg version="1.1" id="Layer_1" xmlns="http://www.w3.org/2000/svg" xmlns:xlink="http://www.w3.org/1999/xlink" x="0px" y="0px"
	 width="405.805px" height="50px" viewBox="0 0 405.805 50" enable-background="new 0 0 405.805 50" xml:space="preserve">
<g>
	<path fill="#E41B4A" d="M223.31,0.11c-0.004,10.24,0.277,20.488-0.097,30.71c-0.346,9.475-7.994,17.299-17.4,18.693
		c-0.558,0.08-1.1,0.248-1.648,0.377h-2.766c-7.03-1.02-12.868-4.074-16.343-10.461c-1.356-2.488-2.565-5.412-2.647-8.176
		c-0.319-10.372-0.144-20.761-0.154-31.144H223.31z"/>
	<path fill="#E41B4A" d="M390.943,11.598h-10.547v35.919h-9.799V11.65h-10.371V1.904h5.523c7.941,0,15.885,0,23.825,0.006
		c0.457,0,0.914,0.075,1.368,0.113V11.598z"/>
	<path fill="#E41B4A" d="M105.89,1.943h7.635c6.167,15.164,12.344,30.348,18.551,45.604h-9.896
		c-4.123-10.131-8.248-20.27-12.471-30.651c-4.125,10.353-8.17,20.501-12.202,30.616h-9.842
		C93.754,32.287,99.805,17.157,105.89,1.943"/>
	<path fill="#E41B4A" d="M21.43,32.244c2.645-6.962,5.161-13.643,7.722-20.305c2.393-6.223,7.804-8.321,13.817-10.119
		c-5.836,15.438-11.554,30.564-17.281,45.708h-8.519C11.453,32.414,5.73,17.274,0.001,2.124c4.613-0.019,11.833,4.908,13.459,9.174
		C16.088,18.19,18.705,25.083,21.43,32.244"/>
	<rect y="0.112" fill="none" width="390.812" height="49.778"/>
	<polygon fill="#E41B4A" points="283.437,1.982 293.153,1.982 293.153,37.742 306.527,37.742 306.527,47.492 283.437,47.492 	"/>
</g>
</svg>
