<?xml version="1.0" encoding="utf-8"?>
<!-- Generator: Adobe Illustrator 16.0.3, SVG Export Plug-In . SVG Version: 6.00 Build 0)  -->
<!DOCTYPE svg PUBLIC "-//W3C//DTD SVG 1.1//EN" "http://www.w3.org/Graphics/SVG/1.1/DTD/svg11.dtd">
<svg version="1.1" id="Layer_1" xmlns="http://www.w3.org/2000/svg" xmlns:xlink="http://www.w3.org/1999/xlink" x="0px" y="0px"
	 width="103.4px" height="103.4px" viewBox="0 0 103.4 103.4" enable-background="new 0 0 103.4 103.4" xml:space="preserve">
<path fill="#E41B4A" d="M88.259,15.143C78.494,5.378,65.51,0,51.7,0C37.892,0,24.908,5.378,15.144,15.143
	C5.378,24.909,0,37.892,0,51.699C0,65.51,5.378,78.493,15.144,88.258C24.908,98.022,37.892,103.4,51.7,103.4
	c13.81,0,26.793-5.378,36.559-15.144C98.022,78.493,103.4,65.51,103.4,51.699C103.4,37.891,98.022,24.908,88.259,15.143z
	 M51.7,99.199c-12.688,0-24.616-4.94-33.586-13.91C9.142,76.317,4.2,64.389,4.2,51.699c0-12.688,4.941-24.615,13.914-33.586
	C27.085,9.141,39.013,4.199,51.7,4.199c12.688,0,24.617,4.941,33.588,13.914C94.26,27.084,99.2,39.012,99.2,51.699
	c0,12.688-4.94,24.617-13.912,33.59C76.318,94.259,64.39,99.199,51.7,99.199z"/>
<path fill="#E41B4A" d="M86.897,23.18c-0.703-0.868-2.088-1.013-2.955-0.31c-0.437,0.354-0.707,0.854-0.767,1.41
	c-0.059,0.559,0.104,1.107,0.459,1.544C89.546,33.109,92.8,42.299,92.8,51.7c0,10.979-4.273,21.301-12.035,29.063
	c-7.764,7.761-18.084,12.034-29.063,12.034c-10.131,0-19.862-3.716-27.399-10.463c-0.83-0.743-2.222-0.667-2.967,0.165
	c-0.771,0.863-0.696,2.193,0.164,2.964C29.812,92.903,40.537,97,51.701,97c12.1,0,23.476-4.712,32.032-13.267
	C92.288,75.178,97,63.802,97,51.7C97,41.339,93.412,31.21,86.897,23.18z"/>
<path fill="#E41B4A" d="M10.6,51.7c0-22.663,18.438-41.102,41.101-41.102c10.129,0,19.859,3.717,27.398,10.464
	c0.83,0.744,2.225,0.666,2.965-0.163c0.375-0.417,0.563-0.955,0.533-1.517c-0.031-0.561-0.277-1.074-0.696-1.449
	C73.589,10.496,62.863,6.399,51.7,6.399c-12.099,0-23.475,4.712-32.031,13.269C11.113,28.225,6.4,39.601,6.4,51.7
	c0,10.362,3.589,20.491,10.104,28.521c0.4,0.493,0.995,0.777,1.632,0.777c0.48,0,0.95-0.168,1.323-0.471
	c0.898-0.729,1.037-2.054,0.309-2.954C13.855,70.291,10.6,61.102,10.6,51.7z"/>
<g>
	<path fill="#E41B4A" d="M77.533,37.84c0-3.1-1.217-6.015-3.426-8.209c-2.445-2.428-5.462-3.765-8.492-3.765
		c-2.753,0-5.288,1.073-7.334,3.104l-3.386,3.359c-0.44,0.438-0.685,1.021-0.687,1.642c-0.003,0.62,0.237,1.205,0.676,1.646
		c0.873,0.881,2.407,0.889,3.288,0.013l3.385-3.358c1.141-1.133,2.537-1.732,4.037-1.732c1.796,0,3.705,0.872,5.238,2.394
		c1.322,1.311,2.05,3.054,2.05,4.908c0,1.853-0.728,3.596-2.048,4.908l-10.664,10.58c-2.221,2.203-4.188,3.273-6.015,3.273
		c-1.846,0-2.986-1.132-3.535-1.675c-0.438-0.437-1.021-0.677-1.638-0.677c-0.625,0-1.211,0.245-1.65,0.688
		c-0.438,0.44-0.678,1.023-0.676,1.645c0.003,0.622,0.246,1.205,0.688,1.643c2.027,2.014,4.304,3.034,6.768,3.034
		c3.052,0,6.279-1.602,9.334-4.632l10.664-10.58C76.317,43.854,77.533,40.939,77.533,37.84z"/>
	<path fill="#E41B4A" d="M49.19,69.812c0.002-0.621-0.238-1.207-0.676-1.648c-0.875-0.881-2.408-0.884-3.289-0.008l-2.715,2.695
		c-1.328,1.316-3.095,2.041-4.975,2.041c-1.879,0-3.645-0.725-4.971-2.041c-1.319-1.312-2.047-3.054-2.047-4.907
		c0-1.851,0.727-3.594,2.045-4.907l9.998-9.919c1.7-1.686,4.268-3.694,6.844-3.694c1.28,0,2.415,0.481,3.374,1.433
		c0.882,0.877,2.412,0.87,3.288-0.011c0.437-0.44,0.677-1.024,0.674-1.646c-0.002-0.621-0.246-1.204-0.687-1.642
		c-1.828-1.814-4.082-2.773-6.517-2.773c-3.34,0-6.98,1.787-10.253,5.034l-9.995,9.917c-2.207,2.192-3.423,5.107-3.423,8.208
		c0,3.102,1.216,6.016,3.424,8.206c2.198,2.183,5.127,3.384,8.246,3.384c3.12,0,6.05-1.202,8.25-3.386l2.716-2.695
		C48.944,71.015,49.188,70.433,49.19,69.812z"/>
</g>
</svg>
