<?xml version="1.0" encoding="utf-8"?>
<!-- Generator: Adobe Illustrator 16.0.3, SVG Export Plug-In . SVG Version: 6.00 Build 0)  -->
<!DOCTYPE svg PUBLIC "-//W3C//DTD SVG 1.1//EN" "http://www.w3.org/Graphics/SVG/1.1/DTD/svg11.dtd">
<svg version="1.1" id="Layer_1" xmlns="http://www.w3.org/2000/svg" xmlns:xlink="http://www.w3.org/1999/xlink" x="0px" y="0px"
	 width="80px" height="22.614px" viewBox="0 0 80 22.614" enable-background="new 0 0 80 22.614" xml:space="preserve">
<path fill="#E41B4A" d="M60.003,22.614c5.984-0.002,8.552-4.972,10.817-9.356c2.654-5.136,4.596-8.255,9.178-8.255
	c0,0,0.001,0,0.002,0v-5c-0.001,0-0.001,0-0.002,0c-7.956,0-11.097,6.078-13.62,10.961c-2.13,4.123-3.578,6.65-6.376,6.651
	c-2.801-0.001-4.249-2.528-6.38-6.651C51.1,6.079,47.959,0.002,40.003,0.002c-7.959,0-11.099,6.078-13.623,10.961
	c-2.13,4.124-3.578,6.65-6.378,6.65s-4.248-2.527-6.379-6.651C11.1,6.079,7.959,0,0,0v5c4.583,0,6.526,3.12,9.181,8.257
	c2.267,4.387,4.835,9.356,10.821,9.356s8.555-4.97,10.82-9.354c2.654-5.138,4.598-8.257,9.181-8.257
	c4.581,0,6.523,3.119,9.178,8.255C51.446,17.643,54.015,22.614,60.003,22.614"/>
</svg>
