<?xml version="1.0" encoding="utf-8"?>
<!-- Generator: Adobe Illustrator 16.0.3, SVG Export Plug-In . SVG Version: 6.00 Build 0)  -->
<!DOCTYPE svg PUBLIC "-//W3C//DTD SVG 1.1//EN" "http://www.w3.org/Graphics/SVG/1.1/DTD/svg11.dtd">
<svg version="1.1" id="Layer_1" xmlns="http://www.w3.org/2000/svg" xmlns:xlink="http://www.w3.org/1999/xlink" x="0px" y="0px"
	 width="99.238px" height="79.863px" viewBox="0 0 99.238 79.863" enable-background="new 0 0 99.238 79.863" xml:space="preserve">
<g>
	<g>
		<path fill="#E41B4A" d="M2.451,16.713c-0.506,0-1.013-0.185-1.411-0.559c-0.831-0.779-0.873-2.085-0.093-2.916l4.494-4.791
			l-4.79-4.492c-0.831-0.779-0.873-2.085-0.093-2.917c0.779-0.831,2.085-0.872,2.916-0.093l4.789,4.492l4.49-4.787
			c0.78-0.831,2.086-0.872,2.917-0.093s0.873,2.085,0.093,2.916l-4.489,4.786l4.788,4.49c0.831,0.78,0.873,2.085,0.093,2.917
			s-2.085,0.873-2.917,0.093l-4.788-4.49l-4.494,4.792C3.55,16.494,3.001,16.713,2.451,16.713z"/>
	</g>
	<g>
		<path fill="#E41B4A" d="M2.451,49.41c-0.506,0-1.013-0.186-1.411-0.559c-0.831-0.779-0.873-2.086-0.093-2.916l4.494-4.791
			l-4.79-4.492c-0.831-0.78-0.873-2.085-0.093-2.917c0.779-0.831,2.085-0.872,2.916-0.094l4.789,4.492l4.49-4.786
			c0.78-0.831,2.086-0.872,2.917-0.093c0.831,0.779,0.873,2.085,0.093,2.917l-4.489,4.786l4.788,4.49
			c0.831,0.779,0.873,2.086,0.093,2.916c-0.779,0.832-2.085,0.873-2.917,0.094l-4.788-4.49l-4.494,4.791
			C3.55,49.191,3.001,49.41,2.451,49.41z"/>
	</g>
	<g>
		<path fill="#E41B4A" d="M43.714,16.713c-0.506,0-1.013-0.185-1.411-0.559c-0.831-0.779-0.873-2.085-0.093-2.916l4.494-4.791
			l-4.79-4.492c-0.831-0.779-0.873-2.085-0.093-2.917c0.78-0.831,2.085-0.872,2.916-0.093l4.789,4.492l4.49-4.787
			c0.779-0.83,2.084-0.873,2.915-0.093c0.832,0.779,0.873,2.085,0.094,2.916l-4.489,4.786l4.787,4.49
			c0.832,0.78,0.873,2.085,0.094,2.917c-0.779,0.83-2.084,0.873-2.916,0.093l-4.788-4.49l-4.495,4.792
			C44.813,16.494,44.264,16.713,43.714,16.713z"/>
	</g>
	<g>
		<path fill="#E41B4A" d="M43.714,49.41c-0.506,0-1.013-0.186-1.411-0.559c-0.831-0.779-0.873-2.086-0.093-2.916l4.494-4.791
			l-4.79-4.492c-0.831-0.78-0.873-2.085-0.093-2.917c0.78-0.831,2.085-0.872,2.916-0.094l4.789,4.492l4.49-4.786
			c0.779-0.83,2.084-0.874,2.915-0.093c0.832,0.779,0.873,2.085,0.094,2.917l-4.489,4.786l4.787,4.49
			c0.832,0.779,0.873,2.086,0.094,2.916s-2.084,0.875-2.916,0.094l-4.788-4.49l-4.495,4.791
			C44.813,49.191,44.264,49.41,43.714,49.41z"/>
	</g>
	<g>
		<path fill="#E41B4A" d="M84.976,16.713c-0.505,0-1.012-0.185-1.41-0.559c-0.831-0.779-0.873-2.085-0.094-2.916l4.494-4.791
			l-4.789-4.492c-0.831-0.779-0.872-2.085-0.093-2.917c0.779-0.83,2.084-0.873,2.915-0.093l4.79,4.492l4.489-4.787
			c0.779-0.83,2.084-0.873,2.916-0.093c0.832,0.779,0.873,2.085,0.094,2.916l-4.489,4.786l4.787,4.49
			c0.832,0.78,0.873,2.085,0.094,2.917c-0.779,0.83-2.084,0.873-2.916,0.093l-4.788-4.49l-4.494,4.792
			C86.075,16.494,85.526,16.713,84.976,16.713z"/>
	</g>
	<g>
		<path fill="#E41B4A" d="M84.976,49.41c-0.505,0-1.012-0.186-1.41-0.559c-0.831-0.779-0.873-2.086-0.094-2.916l4.494-4.791
			l-4.789-4.492c-0.831-0.78-0.872-2.085-0.093-2.917c0.779-0.831,2.084-0.874,2.915-0.094l4.79,4.492l4.489-4.786
			c0.779-0.83,2.084-0.874,2.916-0.093c0.832,0.779,0.873,2.085,0.094,2.917l-4.489,4.786l4.787,4.49
			c0.832,0.779,0.873,2.086,0.094,2.916s-2.084,0.875-2.916,0.094l-4.788-4.49l-4.494,4.791
			C86.075,49.191,85.526,49.41,84.976,49.41z"/>
	</g>
	<g>
		<path fill="#E41B4A" d="M49.625,79.863c-2.507,0-4.797-1.268-6.128-3.387c-1.029-1.635-1.359-3.574-0.931-5.457
			c0.429-1.885,1.566-3.488,3.202-4.518c1.155-0.725,2.485-1.109,3.846-1.109c2.507,0,4.798,1.266,6.129,3.383
			c2.124,3.373,1.107,7.85-2.268,9.975C52.316,79.479,50.986,79.863,49.625,79.863z M49.613,69.518
			c-0.583,0-1.153,0.166-1.649,0.479c-0.703,0.441-1.191,1.131-1.375,1.939c-0.184,0.809-0.042,1.641,0.4,2.344
			c0.573,0.912,1.558,1.457,2.635,1.457c0.583,0,1.154-0.166,1.652-0.479c1.448-0.912,1.886-2.834,0.973-4.285
			C51.678,70.063,50.691,69.518,49.613,69.518z"/>
	</g>
</g>
</svg>
