<?xml version="1.0" encoding="utf-8"?>
<!-- Generator: Adobe Illustrator 16.0.0, SVG Export Plug-In . SVG Version: 6.00 Build 0)  -->
<!DOCTYPE svg PUBLIC "-//W3C//DTD SVG 1.1//EN" "http://www.w3.org/Graphics/SVG/1.1/DTD/svg11.dtd">
<svg version="1.1" id="Layer_1" xmlns="http://www.w3.org/2000/svg" xmlns:xlink="http://www.w3.org/1999/xlink" x="0px" y="0px"
	 width="103.4px" height="103.4px" viewBox="0 0 103.4 103.4" enable-background="new 0 0 103.4 103.4" xml:space="preserve">
<g>
	<path fill="#E41B4A" d="M88.258,15.143C78.494,5.378,65.511,0,51.7,0C37.892,0,24.908,5.378,15.144,15.143
		C5.378,24.909,0,37.892,0,51.699C0,65.51,5.378,78.493,15.144,88.258C24.908,98.022,37.892,103.4,51.7,103.4
		c13.81,0,26.792-5.378,36.558-15.143C98.021,78.493,103.4,65.51,103.4,51.699C103.4,37.891,98.021,24.908,88.258,15.143z
		 M51.7,99.199c-12.688,0-24.616-4.94-33.588-13.91C9.142,76.317,4.2,64.388,4.2,51.699c0-12.688,4.941-24.615,13.912-33.586
		C27.085,9.141,39.014,4.199,51.7,4.199c12.688,0,24.616,4.941,33.587,13.914C94.26,27.084,99.2,39.012,99.2,51.699
		c0,12.688-4.94,24.617-13.913,33.59C76.318,94.259,64.39,99.199,51.7,99.199z"/>
	<path fill="#E41B4A" d="M86.896,23.18c-0.703-0.867-2.087-1.014-2.955-0.309c-0.436,0.353-0.707,0.854-0.766,1.41
		c-0.059,0.559,0.104,1.107,0.459,1.544c5.91,7.284,9.164,16.474,9.164,25.875c0,10.98-4.274,21.302-12.037,29.063
		C73,88.524,62.68,92.799,51.7,92.799c-10.13,0-19.861-3.716-27.399-10.462c-0.832-0.745-2.223-0.667-2.966,0.164
		c-0.374,0.418-0.563,0.956-0.531,1.516c0.03,0.561,0.278,1.074,0.695,1.448C29.812,92.903,40.537,97,51.7,97
		c12.101,0,23.476-4.712,32.032-13.267C92.287,75.178,97,63.802,97,51.7C97,41.338,93.411,31.209,86.896,23.18z"/>
	<path fill="#E41B4A" d="M10.6,51.7c0-22.663,18.438-41.102,41.101-41.102c10.128,0,19.858,3.717,27.398,10.464
		c0.83,0.744,2.224,0.667,2.965-0.163c0.374-0.417,0.563-0.955,0.532-1.515c-0.03-0.561-0.277-1.076-0.695-1.451
		C73.588,10.496,62.863,6.399,51.7,6.399c-12.099,0-23.475,4.712-32.031,13.269C11.113,28.224,6.4,39.6,6.4,51.7
		c0,10.362,3.588,20.491,10.104,28.522C16.905,80.717,17.5,81,18.136,81c0.48,0,0.95-0.168,1.322-0.471
		c0.899-0.729,1.038-2.053,0.309-2.954C13.855,70.291,10.6,61.102,10.6,51.7z"/>
	<path fill="#E41B4A" d="M70.836,30.537l-0.371-0.038c-7.385-0.571-18.484-0.578-18.621-0.578c-0.111,0-11.212,0.007-18.596,0.578
		l-0.101,0.011c-0.079,0.011-0.169,0.02-0.277,0.028c-1.279,0.13-3.94,0.401-6.291,3.016c-1.918,2.085-2.521,5.964-2.627,6.756
		c-0.022,0.191-0.54,4.733-0.54,9.338v4.262c0,4.607,0.518,9.149,0.544,9.374c0.102,0.757,0.704,4.636,2.621,6.714
		c2.187,2.43,4.916,2.779,6.407,2.97c0.221,0.029,0.41,0.053,0.547,0.081c0.066,0.014,0.133,0.022,0.196,0.028
		c4.365,0.449,17.991,0.575,18.128,0.576h0.004c0.109,0,11.223-0.025,18.604-0.589l0.396-0.044c1.275-0.133,3.931-0.41,6.273-3.018
		c1.918-2.082,2.521-5.959,2.632-6.771c0.09-0.801,0.538-5.017,0.538-9.319v-4.263c0-4.293-0.448-8.515-0.546-9.375
		c-0.103-0.757-0.707-4.639-2.619-6.715C74.785,30.939,72.123,30.668,70.836,30.537z M76.103,49.649v4.263
		c0,4.314-0.491,8.661-0.511,8.833c-0.142,1.047-0.707,3.502-1.573,4.44c-1.269,1.414-2.614,1.554-3.601,1.656l-0.313,0.035
		c-6.636,0.506-16.317,0.568-18.229,0.576c-0.131-0.001-13.49-0.134-17.616-0.543c-0.238-0.042-0.495-0.077-0.766-0.111
		c-1.183-0.151-2.654-0.34-3.821-1.643c-0.769-0.827-1.369-3.079-1.55-4.404c-0.005-0.044-0.512-4.487-0.512-8.842v-4.262
		c0-4.362,0.507-8.799,0.511-8.833c0.142-1.048,0.707-3.506,1.572-4.443c1.275-1.421,2.62-1.556,3.606-1.654l0.307-0.034
		c7.198-0.556,18.128-0.563,18.237-0.563h0.025c0.109,0,11.037,0.007,18.222,0.562l0.327,0.035c0.982,0.099,2.327,0.233,3.622,1.679
		c0.767,0.828,1.369,3.083,1.55,4.408C75.643,41.271,76.103,45.485,76.103,49.649z"/>
	<path fill="#E41B4A" d="M62.828,49.987l-16.472-9.884c-0.637-0.384-1.469-0.394-2.114-0.026c-0.657,0.372-1.066,1.072-1.066,1.826
		V61.67c0,0.755,0.409,1.455,1.066,1.826c0.314,0.179,0.673,0.273,1.034,0.273c0.38,0,0.754-0.104,1.08-0.299l16.47-9.884
		c0.63-0.376,1.021-1.066,1.021-1.801S63.457,50.362,62.828,49.987z M57.668,51.787l-10.291,6.175v-12.35L57.668,51.787z"/>
</g>
</svg>
